# xmcd
#
# Track frame offsets:
#	150
#	11970
#	23634
#	33267
#	44247
#	57087
#	68338
#	81277
#	90650
#	103253
#	111785
#	121903
#	126100
#	137575
#	150242
#	165506
#
# Disc length: 2289 seconds
#
# Revision: 1
# Processed by: cddbd v1.5.2PL0 Copyright (c) Steve Scherf et al.
# Submitted via: audiograbber 1.83.01
#
DISCID=c708ef10
DTITLE=Johnny Cash  - The Rambler
DYEAR=1977
DGENRE=Country
TTITLE0=Hit The Road And Go
TTITLE1=Dialogue #1
TTITLE2=If It Wasn't For The Wabash River
TTITLE3=Dialogue #2
TTITLE4=Lady
TTITLE5=Dialogue #3
TTITLE6=After The Ball
TTITLE7=Dialogue #4
TTITLE8=No Earthly Good
TTITLE9=Dialogue #5
TTITLE10=A Wednesday Car
TTITLE11=Dialogue #6
TTITLE12=My Cowboy's Last Ride
TTITLE13=Dialogue #7
TTITLE14=Calilou
TTITLE15=Dialogue #8
EXTD=
EXTT0=
EXTT1=
EXTT2=
EXTT3=
EXTT4=
EXTT5=
EXTT6=
EXTT7=
EXTT8=
EXTT9=
EXTT10=
EXTT11=
EXTT12=
EXTT13=
EXTT14=
EXTT15=
PLAYORDER=
